<?xml version="1.0" standalone="no"?>
<svg viewBox="0 0 200 200" xmlns="http://www.w3.org/2000/svg">
  <path fill="#FF0066" d="M22.1,-31.6C30.7,-28.8,41.2,-26.2,46.4,-19.7C51.6,-13.3,51.5,-2.9,52.8,9.6C54.1,22.1,56.8,36.8,49.8,40.9C42.8,44.9,26,38.1,11.4,45.4C-3.1,52.6,-15.5,73.8,-24.6,75.1C-33.7,76.4,-39.4,57.8,-45.1,43.4C-50.8,29.1,-56.4,19,-59.9,7.4C-63.4,-4.1,-64.8,-17.2,-62,-30.5C-59.3,-43.8,-52.4,-57.3,-41.4,-59C-30.4,-60.6,-15.2,-50.4,-4.2,-43.9C6.7,-37.3,13.5,-34.4,22.1,-31.6Z" transform="translate(100 100)" />
</svg>
