<?xml version="1.0" standalone="no"?>
<svg viewBox="0 0 200 200" xmlns="http://www.w3.org/2000/svg">
  <path fill="#FF0066" d="M42.3,-67.9C54.6,-57.9,64.3,-45.9,66,-32.9C67.7,-19.9,61.4,-6,56.4,6C51.4,18,47.8,28.2,42.9,41.5C38.1,54.9,32,71.4,20.5,79.1C9,86.7,-7.9,85.5,-24.6,81.6C-41.4,77.7,-58.1,71.3,-65.4,58.9C-72.7,46.5,-70.7,28.2,-71.2,11.4C-71.7,-5.3,-74.8,-20.4,-70.5,-33.3C-66.3,-46.2,-54.8,-56.8,-41.8,-66.5C-28.9,-76.2,-14.4,-85.1,0.3,-85.5C15,-85.9,30,-78,42.3,-67.9Z" transform="translate(100 100)" />
</svg>
